<?xml version="1.0" encoding="UTF-8" standalone="no"?>
<svg
   xmlns:dc="http://purl.org/dc/elements/1.1/"
   xmlns:cc="http://creativecommons.org/ns#"
   xmlns:rdf="http://www.w3.org/1999/02/22-rdf-syntax-ns#"
   xmlns:svg="http://www.w3.org/2000/svg"
   xmlns="http://www.w3.org/2000/svg"
   viewBox="0 0 865.31732 646.71332"
   height="646.71332"
   width="865.31732"
   xml:space="preserve"
   id="svg2"
   version="1.1"><metadata
     id="metadata8"><rdf:RDF><cc:Work
         rdf:about=""><dc:format>image/svg+xml</dc:format><dc:type
           rdf:resource="http://purl.org/dc/dcmitype/StillImage" /></cc:Work></rdf:RDF></metadata><defs
     id="defs6"><clipPath
       id="clipPath18"
       clipPathUnits="userSpaceOnUse"><path
         id="path16"
         d="M 0,0 H 648.988 V 485.035 H 0 Z" /></clipPath><linearGradient
       id="linearGradient32"
       spreadMethod="pad"
       gradientTransform="matrix(1.53e-5,-1149.6703,-1149.6703,-1.53e-5,324.49414,1145.9209)"
       gradientUnits="userSpaceOnUse"
       y2="0"
       x2="1"
       y1="0"
       x1="0"><stop
         id="stop24"
         offset="0"
         style="stop-opacity:1;stop-color:#ffffff" /><stop
         id="stop26"
         offset="0.373627"
         style="stop-opacity:1;stop-color:#ffffff" /><stop
         id="stop28"
         offset="0.64917527"
         style="stop-opacity:1;stop-color:#ffffff" /><stop
         id="stop30"
         offset="1"
         style="stop-opacity:1;stop-color:#f8e1f1" /></linearGradient><clipPath
       id="clipPath42"
       clipPathUnits="userSpaceOnUse"><path
         id="path40"
         d="M 0,485.035 H 648.988 V 0 H 0 Z" /></clipPath><clipPath
       id="clipPath340"
       clipPathUnits="userSpaceOnUse"><path
         id="path338"
         d="M 0,485.035 H 648.988 V 0 H 0 Z" /></clipPath></defs><g
     transform="matrix(1.3333333,0,0,-1.3333333,0,646.71333)"
     id="g10"><g
       id="g12"><g
         clip-path="url(#clipPath18)"
         id="g14"><g
           id="g20"><g
             id="g22"><path
               id="path34"
               style="fill:url(#linearGradient32);stroke:none"
               d="M 0,0 H 648.988 V 485.035 H 0 Z" /></g></g></g></g><g
       id="g36"><g
         clip-path="url(#clipPath42)"
         id="g38"><g
           transform="translate(120.2134,-14.7412)"
           id="g44"><path
             id="path46"
             style="fill:#000000;fill-opacity:1;fill-rule:nonzero;stroke:none"
             d="m 0,0 c -0.02,0.858 -0.779,1.464 -1.62,1.464 -1.852,0 -2.145,-1.579 -2.145,-2.984 0,-1.305 0.567,-2.652 1.973,-2.652 1.147,0 1.733,0.662 1.89,1.734 h 3.218 c -0.293,-2.708 -2.4,-4.271 -5.091,-4.271 -3.041,0 -5.304,2.089 -5.304,5.189 0,3.219 2.048,5.521 5.304,5.521 2.516,0 4.758,-1.328 4.994,-4.001 z" /></g><g
           transform="translate(128.8208,-10.8154)"
           id="g48"><path
             id="path50"
             style="fill:#000000;fill-opacity:1;fill-rule:nonzero;stroke:none"
             d="m 0,0 c -3.126,0 -5.303,-2.313 -5.303,-5.345 0,-3.029 2.177,-5.324 5.303,-5.324 3.127,0 5.326,2.295 5.326,5.324 C 5.326,-2.313 3.127,0 0,0" /></g><g
           transform="translate(111.4771,-18.3193)"
           id="g52"><path
             id="path54"
             style="fill:#000000;fill-opacity:1;fill-rule:nonzero;stroke:none"
             d="m 0,0 c -0.86,0 -1.458,-0.636 -1.458,-1.468 0,-0.833 0.598,-1.462 1.458,-1.462 0.859,0 1.461,0.629 1.461,1.462 C 1.461,-0.636 0.859,0 0,0" /></g><g
           transform="translate(134.3779,-11.4629)"
           id="g56"><path
             id="path58"
             style="fill:#000000;fill-opacity:1;fill-rule:nonzero;stroke:none"
             d="m 0,0 h 3.139 v -1.352 h 0.037 c 0.591,0.991 1.635,1.637 2.835,1.637 1.235,0 2.338,-0.398 2.87,-1.598 0.781,1.046 1.749,1.598 3.081,1.598 3.139,0 3.48,-2.377 3.48,-4.262 v -5.892 h -3.234 v 5.8 c 0,1.064 -0.512,1.69 -1.349,1.69 -1.388,0 -1.521,-1.062 -1.521,-2.661 V -9.869 H 6.105 v 5.609 c 0,1.159 -0.343,1.881 -1.216,1.881 -1.162,0 -1.654,-0.665 -1.654,-2.681 V -9.869 H 0 Z" /></g><g
           transform="translate(68.6528,-21.2285)"
           id="g60"><path
             id="path62"
             style="fill:#000000;fill-opacity:1;fill-rule:nonzero;stroke:none"
             d="m 0,0 h -3.686 l -3.256,9.762 h 3.33 l 1.786,-6.454 h 0.038 l 1.807,6.454 h 3.257 z" /></g><g
           transform="translate(73.6675,-17.1309)"
           id="g64"><path
             id="path66"
             style="fill:#000000;fill-opacity:1;fill-rule:nonzero;stroke:none"
             d="m 0,0 c 0.056,-1.335 0.831,-2.219 2.184,-2.219 0.767,0 1.52,0.361 1.818,1.073 H 6.995 C 6.414,-3.403 4.324,-4.383 2.142,-4.383 c -3.177,0 -5.341,1.922 -5.341,5.193 0,2.99 2.392,5.133 5.267,5.133 3.498,0 5.25,-2.631 5.1,-5.943 z" /></g><g
           transform="translate(87.6758,-15.041)"
           id="g68"><path
             id="path70"
             style="fill:#000000;fill-opacity:1;fill-rule:nonzero;stroke:none"
             d="m 0,0 c -0.02,0.827 -0.752,1.412 -1.562,1.412 -1.788,0 -2.068,-1.528 -2.068,-2.881 0,-1.261 0.547,-2.558 1.903,-2.558 1.107,0 1.668,0.64 1.823,1.676 h 3.1 c -0.279,-2.614 -2.314,-4.122 -4.907,-4.122 -2.934,0 -5.113,2.014 -5.113,5.004 0,3.105 1.973,5.323 5.113,5.323 2.424,0 4.589,-1.279 4.815,-3.854 z" /></g><g
           transform="translate(96.9478,-13.5371)"
           id="g72"><path
             id="path74"
             style="fill:#000000;fill-opacity:1;fill-rule:nonzero;stroke:none"
             d="m 0,0 h -1.971 v -4.439 c 0,-0.772 0.451,-0.941 1.145,-0.941 0.262,0 0.548,0.039 0.826,0.039 v -2.35 c -0.58,-0.018 -1.161,-0.096 -1.749,-0.096 -2.726,0 -3.422,0.79 -3.422,3.445 V 0 h -1.617 v 2.07 h 1.617 v 2.952 h 3.2 V 2.07 L 0,2.07 Z" /></g><g
           transform="translate(101.3389,-11.1875)"
           id="g76"><path
             id="path78"
             style="fill:#000000;fill-opacity:1;fill-rule:nonzero;stroke:none"
             d="m 0,0 c -3.027,0 -5.135,-2.239 -5.135,-5.17 0,-2.935 2.108,-5.156 5.135,-5.156 3.027,0 5.153,2.221 5.153,5.156 C 5.153,-2.239 3.027,0 0,0" /></g><g
           transform="translate(106.2773,-11.4668)"
           id="g80"><path
             id="path82"
             style="fill:#000000;fill-opacity:1;fill-rule:nonzero;stroke:none"
             d="m 0,0 h 3.107 v -1.711 h 0.035 c 0.47,1.236 1.558,1.899 2.933,1.899 0.243,0 0.507,-0.024 0.751,-0.074 V -2.801 C 6.414,-2.693 6.038,-2.62 5.603,-2.62 4.024,-2.62 3.197,-3.708 3.197,-4.927 V -9.762 H 0 Z" /></g><g
           transform="translate(36.5967,-11.4668)"
           id="g84"><path
             id="path86"
             style="fill:#000000;fill-opacity:1;fill-rule:nonzero;stroke:none"
             d="m 0,0 h 3.106 v -1.711 h 0.037 c 0.468,1.236 1.561,1.899 2.935,1.899 0.244,0 0.509,-0.024 0.749,-0.074 V -2.801 C 6.415,-2.693 6.042,-2.62 5.604,-2.62 4.029,-2.62 3.198,-3.708 3.198,-4.927 V -9.762 H 0 Z" /></g><g
           transform="translate(45.4766,-17.1309)"
           id="g88"><path
             id="path90"
             style="fill:#000000;fill-opacity:1;fill-rule:nonzero;stroke:none"
             d="m 0,0 c 0.055,-1.335 0.825,-2.219 2.181,-2.219 0.769,0 1.524,0.361 1.823,1.073 H 6.997 C 6.411,-3.403 4.326,-4.383 2.145,-4.383 c -3.181,0 -5.345,1.922 -5.345,5.193 0,2.99 2.39,5.133 5.27,5.133 3.498,0 5.245,-2.631 5.096,-5.943 z" /></g><g
           transform="translate(55.5596,-17.1309)"
           id="g92"><path
             id="path94"
             style="fill:#000000;fill-opacity:1;fill-rule:nonzero;stroke:none"
             d="m 0,0 c 0.055,-1.335 0.826,-2.219 2.182,-2.219 0.769,0 1.522,0.361 1.823,1.073 h 2.991 c -0.582,-2.257 -2.67,-3.237 -4.851,-3.237 -3.179,0 -5.341,1.922 -5.341,5.193 0,2.99 2.384,5.133 5.266,5.133 3.497,0 5.247,-2.631 5.097,-5.943 z" /></g><g
           transform="translate(36.0156,-10.0605)"
           id="g96"><path
             id="path98"
             style="fill:#000000;fill-opacity:1;fill-rule:nonzero;stroke:none"
             d="m 0,0 c 0.283,0 0.564,-0.018 0.864,-0.055 v 2.259 c -0.509,0.02 -1.035,0.055 -1.543,0.055 -2.725,0 -3.704,-0.865 -3.704,-3.665 h -1.541 v -2.071 h 1.541 v -7.691 h 3.195 v 7.691 h 1.919 v 2.071 h -1.919 v 0.431 C -1.188,-0.092 -0.735,0 0,0" /></g><g
           transform="translate(26.939,-14.5703)"
           id="g100"><path
             id="path102"
             style="fill:#ffffff;fill-opacity:1;fill-rule:nonzero;stroke:none"
             d="m 0,0 c 0,-3.982 -3.228,-7.212 -7.211,-7.212 -3.983,0 -7.212,3.23 -7.212,7.212 0,3.981 3.229,7.21 7.212,7.21 C -3.228,7.21 0,3.981 0,0" /></g><g
           transform="translate(22.23,-17.8486)"
           id="g104"><path
             id="path106"
             style="fill:#000000;fill-opacity:1;fill-rule:nonzero;stroke:none"
             d="m 0,0 0.019,-0.013 c 0,0 -0.007,0.005 -0.013,0.01 -0.001,0 -0.004,0 -0.006,0.003 m -3.204,1.693 c -0.35,-0.123 -0.816,0.196 -1.023,0.356 -0.177,0.203 -1.242,1.338 -1.365,1.48 -0.266,0.307 -0.063,0.942 0.594,1.161 0.186,0.063 0.471,0.068 0.644,-0.125 0.776,-0.928 1.586,-1.918 1.646,-2.109 0.1,-0.333 -0.084,-0.62 -0.496,-0.763 m 0.682,8.825 c -0.659,0 -1.294,-0.086 -1.9,-0.246 0.249,-0.021 0.412,-0.178 0.497,-0.492 0,0 1.356,-4.485 1.518,-4.989 0.159,-0.506 0.35,-1.059 0.35,-1.059 C -2.164,3.643 -2.262,3.529 -2.336,3.38 -2.476,3.089 -2.552,2.853 -2.585,2.617 c -0.21,0.36 -1.033,1.368 -1.589,2.04 0,0 -0.036,0.446 -0.155,0.873 -0.12,0.425 -0.886,3.309 -0.886,3.309 C -5.351,9.375 -5.294,9.841 -5,10.094 -7.829,9.093 -9.854,6.425 -9.854,3.286 c 0,-2.85 1.674,-5.315 4.108,-6.493 -0.25,0.366 -0.538,0.937 -0.673,1.743 -0.224,1.325 -0.268,2.183 -0.436,2.922 -0.223,0.988 -0.156,1.217 0.184,1.652 0.168,0.215 0.359,0.348 0.537,0.407 0.178,0.047 0.362,-0.059 0.43,-0.135 C -5.276,2.924 -4.458,2.044 -4.358,1.919 -4.16,1.687 -4.133,1.395 -4.28,1.047 -4.338,0.906 -4.498,0.843 -4.623,0.813 -4.906,0.747 -5.227,0.806 -5.337,0.9 c -0.23,0.193 -1.35,1.217 -1.35,1.166 0,-0.269 0.833,-0.928 1.229,-1.305 0.161,-0.157 0.558,-0.201 0.879,-0.126 0.238,0.056 0.4,0.174 0.471,0.343 0.11,0.259 0.135,0.501 0.076,0.717 0.26,-0.15 0.595,-0.278 0.891,-0.176 0.288,0.1 0.462,0.255 0.556,0.422 0.019,-0.192 0.05,-0.407 0.091,-0.663 0.099,-0.646 0.22,-1.007 0.293,-1.222 0.027,-0.08 0.054,-0.163 0.051,-0.189 -0.002,-0.005 -0.005,-0.009 -0.011,-0.014 -0.17,-0.239 -0.422,-0.628 -0.582,-1.111 -0.106,-0.321 -0.186,-0.758 -0.196,-1.169 -0.005,-0.144 0,-0.367 0.042,-0.367 0.044,10e-4 0.038,0.228 0.054,0.367 0.045,0.416 0.112,0.835 0.233,1.137 0.159,0.392 0.37,0.712 0.6,1.035 0.01,0.012 0.015,0.021 0.02,0.026 0.053,0.079 0.024,0.166 -0.034,0.341 -0.072,0.211 -0.188,0.562 -0.288,1.195 -0.143,0.933 -0.198,1.284 0.145,1.993 0.276,0.576 1.01,0.583 1.168,0.517 0.061,-0.033 0.065,-0.384 0.072,-0.697 0.008,-0.349 0.015,-0.782 0.073,-1.309 0.072,-0.665 0.344,-1.184 0.589,-1.486 0.199,-0.24 0.358,-0.347 0.397,-0.31 0.037,0.036 -0.136,0.167 -0.313,0.443 -0.196,0.304 -0.421,0.763 -0.488,1.373 -0.058,0.517 -0.065,0.948 -0.071,1.294 -0.012,0.526 -0.016,0.789 -0.187,0.86 -0.085,0.037 -0.264,0.057 -0.47,0.03 l 1.353,4.533 c 0.236,0.817 0.485,1.151 1.007,1.098 0.005,0 0.01,-0.004 0.017,-0.005 -1.041,0.558 -2.233,0.877 -3.502,0.877" /></g><g
           transform="translate(23.603,-8.4375)"
           id="g108"><path
             id="path110"
             style="fill:#000000;fill-opacity:1;fill-rule:nonzero;stroke:none"
             d="m 0,0 c 0.174,-0.181 0.245,-0.433 0.171,-0.7 l -1.215,-5.404 c -0.074,-0.419 -0.197,-1.288 -0.086,-1.881 0.149,-0.809 0.468,-1.9 0.235,-3.106 -0.125,-0.64 -0.318,-1.336 -0.641,-1.878 2.889,0.969 4.97,3.667 4.97,6.844 C 3.434,-3.544 2.063,-1.279 0,0" /></g><path
           id="path112"
           style="fill:#000000;fill-opacity:1;fill-rule:nonzero;stroke:none"
           d="m 164.256,-11.693 h 2.498 v -9.587 h -2.498 z" /><g
           transform="translate(168.3911,-14.3115)"
           id="g114"><path
             id="path116"
             style="fill:#000000;fill-opacity:1;fill-rule:nonzero;stroke:none"
             d="m 0,0 h 2.215 v -0.953 h 0.027 c 0.416,0.699 1.155,1.155 2.001,1.155 0.873,0 1.652,-0.282 2.028,-1.128 0.55,0.738 1.235,1.128 2.175,1.128 2.216,0 2.457,-1.679 2.457,-3.008 V -6.969 H 8.621 v 4.096 c 0,0.752 -0.363,1.194 -0.954,1.194 -0.98,0 -1.074,-0.751 -1.074,-1.879 V -6.969 H 4.31 v 3.961 c 0,0.82 -0.242,1.329 -0.859,1.329 -0.819,0 -1.169,-0.469 -1.169,-1.892 v -3.398 l -2.282,0 z" /></g><g
           transform="translate(183.6812,-20.0713)"
           id="g118"><path
             id="path120"
             style="fill:#000000;fill-opacity:1;fill-rule:nonzero;stroke:none"
             d="M 0,0 C 1.088,0 1.451,0.617 1.396,2.055 1.075,1.853 0.483,1.813 -0.013,1.678 -0.524,1.557 -0.954,1.343 -0.954,0.792 -0.954,0.228 -0.51,0 0,0 m -2.954,3.611 c 0.04,0.913 0.47,1.505 1.087,1.868 0.618,0.348 1.424,0.483 2.216,0.483 1.652,0 3.25,-0.362 3.25,-2.337 V 0.577 c 0,-0.591 0,-1.236 0.269,-1.786 H 1.571 c -0.08,0.214 -0.107,0.43 -0.134,0.658 -0.591,-0.618 -1.463,-0.859 -2.296,-0.859 -1.329,0 -2.377,0.671 -2.377,2.107 0,2.271 2.47,2.095 4.055,2.417 0.389,0.081 0.605,0.216 0.605,0.646 0,0.523 -0.632,0.724 -1.102,0.724 -0.631,0 -1.033,-0.281 -1.141,-0.873 z" /></g><g
           transform="translate(191.9907,-15.8555)"
           id="g122"><path
             id="path124"
             style="fill:#000000;fill-opacity:1;fill-rule:nonzero;stroke:none"
             d="m 0,0 c -1.007,0 -1.33,-0.886 -1.33,-1.745 0,-0.819 0.376,-1.639 1.316,-1.639 0.967,0 1.384,0.751 1.384,1.625 C 1.37,-0.872 1.02,0 0,0 m 3.532,-4.579 c 0,-1.142 -0.215,-3.29 -3.478,-3.29 -1.625,0 -3.156,0.362 -3.425,2.229 h 2.283 c 0.054,-0.308 0.174,-0.497 0.389,-0.604 0.202,-0.108 0.484,-0.148 0.833,-0.148 1.088,0 1.196,0.766 1.196,1.625 v 0.658 H 1.303 c -0.417,-0.644 -1.115,-1.02 -1.854,-1.02 -2.108,0 -3.061,1.503 -3.061,3.464 0,1.853 1.088,3.411 3.061,3.411 0.833,0 1.464,-0.362 1.867,-1.075 h 0.027 v 0.873 h 2.189 z" /></g><g
           transform="translate(201.7637,-17.0771)"
           id="g126"><path
             id="path128"
             style="fill:#000000;fill-opacity:1;fill-rule:nonzero;stroke:none"
             d="M 0,0 C -0.041,0.779 -0.591,1.423 -1.357,1.423 -2.162,1.423 -2.7,0.846 -2.833,0 Z m -2.833,-1.275 c 0.04,-0.954 0.59,-1.585 1.557,-1.585 0.55,0 1.088,0.255 1.303,0.765 h 2.135 c -0.416,-1.612 -1.907,-2.309 -3.465,-2.309 -2.269,0 -3.813,1.369 -3.813,3.706 0,2.135 1.705,3.666 3.759,3.666 2.498,0 3.747,-1.881 3.639,-4.243 z" /></g><g
           transform="translate(206.9575,-18.9844)"
           id="g130"><path
             id="path132"
             style="fill:#000000;fill-opacity:1;fill-rule:nonzero;stroke:none"
             d="m 0,0 c 0,-0.349 0.147,-0.604 0.376,-0.778 0.215,-0.162 0.523,-0.243 0.846,-0.243 0.443,0 1.074,0.188 1.074,0.74 0,0.537 -0.712,0.643 -1.115,0.737 -1.436,0.363 -3.236,0.403 -3.236,2.284 0,1.679 1.813,2.135 3.182,2.135 1.531,0 3.13,-0.443 3.21,-2.257 H 2.229 c 0,0.296 -0.107,0.485 -0.295,0.605 -0.188,0.121 -0.444,0.174 -0.726,0.174 -0.375,0 -0.98,-0.04 -0.98,-0.523 0,-0.658 1.531,-0.779 2.578,-1.007 1.41,-0.282 1.773,-1.303 1.773,-1.881 0,-1.866 -1.773,-2.483 -3.344,-2.483 -1.652,0 -3.343,0.551 -3.41,2.497 z" /></g><g
           transform="translate(219.7363,-20.0713)"
           id="g134"><path
             id="path136"
             style="fill:#000000;fill-opacity:1;fill-rule:nonzero;stroke:none"
             d="M 0,0 C 1.088,0 1.451,0.617 1.396,2.055 1.075,1.853 0.483,1.813 -0.013,1.678 -0.524,1.557 -0.954,1.343 -0.954,0.792 -0.954,0.228 -0.51,0 0,0 m -2.954,3.611 c 0.04,0.913 0.47,1.505 1.087,1.868 0.618,0.348 1.424,0.483 2.216,0.483 1.652,0 3.25,-0.362 3.25,-2.337 V 0.577 c 0,-0.591 0,-1.236 0.269,-1.786 H 1.571 c -0.08,0.214 -0.107,0.43 -0.134,0.658 -0.591,-0.618 -1.463,-0.859 -2.296,-0.859 -1.329,0 -2.377,0.671 -2.377,2.107 0,2.271 2.47,2.095 4.055,2.417 0.389,0.081 0.605,0.216 0.605,0.646 0,0.523 -0.632,0.724 -1.102,0.724 -0.631,0 -1.033,-0.281 -1.141,-0.873 z" /></g><g
           transform="translate(224.917,-14.3115)"
           id="g138"><path
             id="path140"
             style="fill:#000000;fill-opacity:1;fill-rule:nonzero;stroke:none"
             d="m 0,0 h 2.215 v -1.222 h 0.027 c 0.336,0.886 1.115,1.357 2.095,1.357 0.175,0 0.363,-0.014 0.538,-0.054 V -2 c -0.296,0.08 -0.564,0.134 -0.873,0.134 -1.128,0 -1.719,-0.78 -1.719,-1.652 v -3.451 l -2.283,0 z" /></g><g
           transform="translate(235.0933,-17.0771)"
           id="g142"><path
             id="path144"
             style="fill:#000000;fill-opacity:1;fill-rule:nonzero;stroke:none"
             d="M 0,0 C -0.041,0.779 -0.591,1.423 -1.357,1.423 -2.162,1.423 -2.7,0.846 -2.833,0 Z m -2.833,-1.275 c 0.04,-0.954 0.59,-1.585 1.557,-1.585 0.55,0 1.088,0.255 1.303,0.765 h 2.135 c -0.416,-1.612 -1.907,-2.309 -3.465,-2.309 -2.269,0 -3.814,1.369 -3.814,3.706 0,2.135 1.706,3.666 3.76,3.666 2.498,0 3.747,-1.881 3.639,-4.243 z" /></g><g
           transform="translate(244.9448,-17.7227)"
           id="g146"><path
             id="path148"
             style="fill:#000000;fill-opacity:1;fill-rule:nonzero;stroke:none"
             d="m 0,0 c 0,-1.222 0.349,-2.013 1.383,-2.013 1.02,0 1.37,1.06 1.37,2.013 0,0.887 -0.35,1.867 -1.357,1.867 C 0.778,1.867 0,1.438 0,0 m -2.202,3.411 h 2.175 V 2.605 H 0 c 0.443,0.659 1.114,1.008 1.92,1.008 2.189,0 3.115,-1.881 3.115,-3.841 0,-1.812 -0.966,-3.531 -2.94,-3.531 -0.86,0 -1.517,0.321 -1.988,0.953 H 0.081 v -3.088 h -2.283 z" /></g><g
           transform="translate(251.2798,-14.3115)"
           id="g150"><path
             id="path152"
             style="fill:#000000;fill-opacity:1;fill-rule:nonzero;stroke:none"
             d="m 0,0 h 2.215 v -1.222 h 0.027 c 0.336,0.886 1.115,1.357 2.095,1.357 0.175,0 0.363,-0.014 0.538,-0.054 V -2 c -0.296,0.08 -0.564,0.134 -0.873,0.134 -1.128,0 -1.719,-0.78 -1.719,-1.652 v -3.451 l -2.283,0 z" /></g><g
           transform="translate(260.0054,-19.7354)"
           id="g154"><path
             id="path156"
             style="fill:#000000;fill-opacity:1;fill-rule:nonzero;stroke:none"
             d="M 0,0 C 1.061,0 1.397,1.047 1.397,1.933 1.397,2.819 1.061,3.88 0,3.88 -1.061,3.88 -1.383,2.819 -1.383,1.933 -1.383,1.047 -1.061,0 0,0 m 0,5.626 c 2.162,0 3.68,-1.599 3.68,-3.693 0,-2.095 -1.518,-3.679 -3.68,-3.679 -2.162,0 -3.666,1.584 -3.666,3.679 0,2.094 1.504,3.693 3.666,3.693" /></g><g
           transform="translate(267.0796,-17.7227)"
           id="g158"><path
             id="path160"
             style="fill:#000000;fill-opacity:1;fill-rule:nonzero;stroke:none"
             d="m 0,0 c 0,-1.222 0.349,-2.013 1.383,-2.013 1.02,0 1.37,1.06 1.37,2.013 0,0.887 -0.35,1.867 -1.357,1.867 C 0.778,1.867 0,1.438 0,0 m -2.202,3.411 h 2.175 V 2.605 H 0 c 0.443,0.659 1.114,1.008 1.92,1.008 2.189,0 3.115,-1.881 3.115,-3.841 0,-1.812 -0.966,-3.531 -2.94,-3.531 -0.86,0 -1.518,0.321 -1.988,0.953 H 0.08 v -3.088 h -2.282 z" /></g><g
           transform="translate(278.1143,-17.0771)"
           id="g162"><path
             id="path164"
             style="fill:#000000;fill-opacity:1;fill-rule:nonzero;stroke:none"
             d="M 0,0 C -0.041,0.779 -0.591,1.423 -1.356,1.423 -2.162,1.423 -2.7,0.846 -2.833,0 Z m -2.833,-1.275 c 0.04,-0.954 0.59,-1.585 1.557,-1.585 0.55,0 1.088,0.255 1.302,0.765 h 2.136 c -0.416,-1.612 -1.907,-2.309 -3.465,-2.309 -2.269,0 -3.814,1.369 -3.814,3.706 0,2.135 1.706,3.666 3.761,3.666 2.497,0 3.746,-1.881 3.638,-4.243 z" /></g><g
           transform="translate(281.6157,-14.3115)"
           id="g166"><path
             id="path168"
             style="fill:#000000;fill-opacity:1;fill-rule:nonzero;stroke:none"
             d="m 0,0 h 2.216 v -1.222 h 0.026 c 0.336,0.886 1.115,1.357 2.095,1.357 0.175,0 0.363,-0.014 0.538,-0.054 V -2 c -0.296,0.08 -0.564,0.134 -0.873,0.134 -1.128,0 -1.719,-0.78 -1.719,-1.652 v -3.451 l -2.283,0 z" /></g><g
           transform="translate(291.457,-15.7881)"
           id="g170"><path
             id="path172"
             style="fill:#000000;fill-opacity:1;fill-rule:nonzero;stroke:none"
             d="m 0,0 h -1.41 v -3.17 c 0,-0.55 0.322,-0.671 0.819,-0.671 0.188,0 0.389,0.028 0.591,0.028 v -1.679 c -0.417,-0.014 -0.833,-0.068 -1.249,-0.068 -1.947,0 -2.444,0.564 -2.444,2.458 V 0 h -1.155 v 1.477 h 1.155 V 3.585 H -1.41 V 1.477 H 0 Z" /></g><g
           transform="translate(296.2754,-21.8975)"
           id="g174"><path
             id="path176"
             style="fill:#000000;fill-opacity:1;fill-rule:nonzero;stroke:none"
             d="m 0,0 c -0.55,-1.531 -1.369,-1.719 -2.914,-1.719 h -1.074 v 1.853 h 0.792 c 0.524,0 0.914,0.296 0.914,0.779 0,0.376 -0.444,1.449 -0.578,1.825 l -1.799,4.848 h 2.417 l 1.316,-4.538 h 0.027 l 1.316,4.538 h 2.336 z" /></g><g
           transform="translate(307.2422,-19.7354)"
           id="g178"><path
             id="path180"
             style="fill:#000000;fill-opacity:1;fill-rule:nonzero;stroke:none"
             d="M 0,0 C 1.061,0 1.397,1.047 1.397,1.933 1.397,2.819 1.061,3.88 0,3.88 -1.061,3.88 -1.383,2.819 -1.383,1.933 -1.383,1.047 -1.061,0 0,0 m 0,5.626 c 2.162,0 3.679,-1.599 3.679,-3.693 0,-2.095 -1.517,-3.679 -3.679,-3.679 -2.162,0 -3.666,1.584 -3.666,3.679 0,2.094 1.504,3.693 3.666,3.693" /></g><g
           transform="translate(312.6108,-15.7881)"
           id="g182"><path
             id="path184"
             style="fill:#000000;fill-opacity:1;fill-rule:nonzero;stroke:none"
             d="M 0,0 H -1.101 V 1.477 H 0 c 0,2.001 0.698,2.618 2.645,2.618 0.363,0 0.739,-0.027 1.101,-0.04 V 2.443 C 3.531,2.471 3.33,2.484 3.128,2.484 2.605,2.484 2.283,2.417 2.283,1.786 V 1.477 H 3.652 V 0 H 2.283 V -5.492 H 0 Z" /></g><g
           transform="translate(325.5117,-15.7881)"
           id="g186"><path
             id="path188"
             style="fill:#000000;fill-opacity:1;fill-rule:nonzero;stroke:none"
             d="m 0,0 h -1.41 v -3.17 c 0,-0.55 0.323,-0.671 0.819,-0.671 0.188,0 0.39,0.028 0.591,0.028 v -1.679 c -0.416,-0.014 -0.833,-0.068 -1.249,-0.068 -1.947,0 -2.443,0.564 -2.443,2.458 V 0 h -1.155 v 1.477 h 1.155 V 3.585 H -1.41 V 1.477 H 0 Z" /></g><g
           transform="translate(326.5313,-11.6934)"
           id="g190"><path
             id="path192"
             style="fill:#000000;fill-opacity:1;fill-rule:nonzero;stroke:none"
             d="m 0,0 h 2.282 v -3.571 h 0.027 c 0.349,0.712 1.289,1.155 2.122,1.155 2.323,0 2.51,-1.692 2.51,-2.7 V -9.587 H 4.658 v 3.37 c 0,0.953 0.109,1.92 -1.14,1.92 -0.86,0 -1.236,-0.724 -1.236,-1.49 v -3.8 H 0 Z" /></g><g
           transform="translate(339.7686,-17.0771)"
           id="g194"><path
             id="path196"
             style="fill:#000000;fill-opacity:1;fill-rule:nonzero;stroke:none"
             d="M 0,0 C -0.04,0.779 -0.592,1.423 -1.357,1.423 -2.163,1.423 -2.7,0.846 -2.834,0 Z m -2.834,-1.275 c 0.04,-0.954 0.591,-1.585 1.558,-1.585 0.55,0 1.088,0.255 1.302,0.765 h 2.135 c -0.416,-1.612 -1.906,-2.309 -3.465,-2.309 -2.269,0 -3.812,1.369 -3.812,3.706 0,2.135 1.705,3.666 3.759,3.666 2.498,0 3.747,-1.881 3.638,-4.243 z" /></g><g
           transform="translate(349.3652,-17.7227)"
           id="g198"><path
             id="path200"
             style="fill:#000000;fill-opacity:1;fill-rule:nonzero;stroke:none"
             d="m 0,0 c 0,-0.953 0.349,-2.013 1.396,-2.013 1.114,0 1.356,1.06 1.356,1.947 0,1.006 -0.363,1.933 -1.356,1.933 C 0.349,1.867 0,0.887 0,0 M 4.953,-3.558 H 2.779 v 0.806 H 2.752 C 2.309,-3.41 1.637,-3.759 0.831,-3.759 c -2.188,0 -3.114,1.88 -3.114,3.84 0,1.814 0.967,3.532 2.939,3.532 0.86,0 1.519,-0.322 1.989,-0.954 h 0.027 v 3.37 h 2.281 z" /></g><g
           transform="translate(360.6543,-17.0771)"
           id="g202"><path
             id="path204"
             style="fill:#000000;fill-opacity:1;fill-rule:nonzero;stroke:none"
             d="M 0,0 C -0.04,0.779 -0.592,1.423 -1.357,1.423 -2.162,1.423 -2.699,0.846 -2.832,0 Z m -2.832,-1.275 c 0.039,-0.954 0.589,-1.585 1.557,-1.585 0.55,0 1.087,0.255 1.302,0.765 h 2.135 c -0.416,-1.612 -1.907,-2.309 -3.465,-2.309 -2.268,0 -3.812,1.369 -3.812,3.706 0,2.135 1.705,3.666 3.758,3.666 2.498,0 3.748,-1.881 3.64,-4.243 z" /></g><g
           transform="translate(365.8486,-18.9844)"
           id="g206"><path
             id="path208"
             style="fill:#000000;fill-opacity:1;fill-rule:nonzero;stroke:none"
             d="m 0,0 c 0,-0.349 0.147,-0.604 0.376,-0.778 0.215,-0.162 0.523,-0.243 0.846,-0.243 0.443,0 1.074,0.188 1.074,0.74 0,0.537 -0.713,0.643 -1.114,0.737 -1.438,0.363 -3.238,0.403 -3.238,2.284 0,1.679 1.814,2.135 3.184,2.135 1.53,0 3.129,-0.443 3.209,-2.257 H 2.229 c 0,0.296 -0.107,0.485 -0.294,0.605 -0.19,0.121 -0.446,0.174 -0.727,0.174 -0.375,0 -0.979,-0.04 -0.979,-0.523 0,-0.658 1.53,-0.779 2.578,-1.007 1.409,-0.282 1.772,-1.303 1.772,-1.881 0,-1.866 -1.772,-2.483 -3.344,-2.483 -1.652,0 -3.343,0.551 -3.41,2.497 z" /></g><path
           id="path210"
           style="fill:#000000;fill-opacity:1;fill-rule:nonzero;stroke:none"
           d="m 371.62,-14.312 h 2.284 v -6.969 h -2.284 z m 2.284,0.874 h -2.284 v 1.745 h 2.284 z" /><g
           transform="translate(378.7217,-15.8555)"
           id="g212"><path
             id="path214"
             style="fill:#000000;fill-opacity:1;fill-rule:nonzero;stroke:none"
             d="m 0,0 c -1.007,0 -1.329,-0.886 -1.329,-1.745 0,-0.819 0.375,-1.639 1.315,-1.639 0.968,0 1.384,0.751 1.384,1.625 C 1.37,-0.872 1.021,0 0,0 m 3.532,-4.579 c 0,-1.142 -0.215,-3.29 -3.478,-3.29 -1.625,0 -3.155,0.362 -3.424,2.229 h 2.283 c 0.053,-0.308 0.174,-0.497 0.389,-0.604 0.202,-0.108 0.484,-0.148 0.833,-0.148 1.088,0 1.195,0.766 1.195,1.625 v 0.658 H 1.304 c -0.417,-0.644 -1.116,-1.02 -1.854,-1.02 -2.109,0 -3.062,1.503 -3.062,3.464 0,1.853 1.088,3.411 3.062,3.411 0.833,0 1.463,-0.362 1.867,-1.075 h 0.026 v 0.873 h 2.189 z" /></g><g
           transform="translate(383.7148,-14.3115)"
           id="g216"><path
             id="path218"
             style="fill:#000000;fill-opacity:1;fill-rule:nonzero;stroke:none"
             d="m 0,0 h 2.215 v -0.953 h 0.027 c 0.417,0.712 1.357,1.155 2.19,1.155 2.322,0 2.511,-1.692 2.511,-2.7 V -6.969 H 4.659 v 3.37 c 0,0.953 0.108,1.92 -1.14,1.92 -0.86,0 -1.238,-0.724 -1.238,-1.49 v -3.8 H 0 Z" /></g><g
           transform="translate(396.9521,-17.0771)"
           id="g220"><path
             id="path222"
             style="fill:#000000;fill-opacity:1;fill-rule:nonzero;stroke:none"
             d="M 0,0 C -0.04,0.779 -0.591,1.423 -1.356,1.423 -2.162,1.423 -2.7,0.846 -2.834,0 Z m -2.834,-1.275 c 0.04,-0.954 0.591,-1.585 1.558,-1.585 0.55,0 1.088,0.255 1.302,0.765 h 2.135 c -0.416,-1.612 -1.906,-2.309 -3.464,-2.309 -2.27,0 -3.813,1.369 -3.813,3.706 0,2.135 1.705,3.666 3.76,3.666 2.498,0 3.746,-1.881 3.638,-4.243 z" /></g><g
           transform="translate(400.4531,-14.3115)"
           id="g224"><path
             id="path226"
             style="fill:#000000;fill-opacity:1;fill-rule:nonzero;stroke:none"
             d="m 0,0 h 2.217 v -1.222 h 0.026 c 0.335,0.886 1.114,1.357 2.095,1.357 0.174,0 0.363,-0.014 0.537,-0.054 V -2 c -0.296,0.08 -0.564,0.134 -0.872,0.134 -1.13,0 -1.719,-0.78 -1.719,-1.652 v -3.451 l -2.284,0 z" /></g><path
           id="path228"
           style="fill:#000000;fill-opacity:1;fill-rule:nonzero;stroke:none"
           d="m 404.963,-18.782 h 2.498 v -2.498 h -2.498 z" /><g
           transform="translate(422.7256,-15.1172)"
           id="g230"><path
             id="path232"
             style="fill:#000000;fill-opacity:1;fill-rule:nonzero;stroke:none"
             d="m 0,0 c -0.136,0.968 -0.886,1.478 -1.935,1.478 -1.609,0 -2.228,-1.424 -2.228,-2.847 0,-1.424 0.619,-2.847 2.228,-2.847 1.169,0 1.841,0.671 1.935,1.773 h 2.498 c -0.136,-2.471 -1.948,-3.921 -4.38,-3.921 -2.899,0 -4.779,2.216 -4.779,4.995 0,2.78 1.88,4.995 4.779,4.995 2.07,0 4.311,-1.315 4.38,-3.626 z" /></g><g
           transform="translate(426.4551,-11.6934)"
           id="g234"><path
             id="path236"
             style="fill:#000000;fill-opacity:1;fill-rule:nonzero;stroke:none"
             d="M 0,0 H 2.283 V -3.571 H 2.31 c 0.348,0.712 1.288,1.155 2.12,1.155 2.324,0 2.511,-1.692 2.511,-2.7 V -9.587 H 4.66 v 3.37 c 0,0.953 0.108,1.92 -1.142,1.92 -0.86,0 -1.235,-0.724 -1.235,-1.49 v -3.8 H 0 Z" /></g><g
           transform="translate(439.6914,-17.0771)"
           id="g238"><path
             id="path240"
             style="fill:#000000;fill-opacity:1;fill-rule:nonzero;stroke:none"
             d="M 0,0 C -0.039,0.779 -0.591,1.423 -1.356,1.423 -2.162,1.423 -2.698,0.846 -2.834,0 Z m -2.834,-1.275 c 0.04,-0.954 0.592,-1.585 1.559,-1.585 0.55,0 1.086,0.255 1.302,0.765 h 2.135 c -0.416,-1.612 -1.906,-2.309 -3.465,-2.309 -2.267,0 -3.812,1.369 -3.812,3.706 0,2.135 1.705,3.666 3.759,3.666 2.498,0 3.745,-1.881 3.638,-4.243 z" /></g><g
           transform="translate(447.6504,-16.8623)"
           id="g242"><path
             id="path244"
             style="fill:#000000;fill-opacity:1;fill-rule:nonzero;stroke:none"
             d="m 0,0 c -0.014,0.591 -0.535,1.007 -1.113,1.007 -1.276,0 -1.479,-1.088 -1.479,-2.055 0,-0.899 0.391,-1.825 1.358,-1.825 0.793,0 1.194,0.456 1.301,1.194 h 2.216 c -0.2,-1.866 -1.651,-2.94 -3.504,-2.94 -2.093,0 -3.652,1.436 -3.652,3.571 0,2.216 1.408,3.801 3.652,3.801 C 0.512,2.753 2.057,1.84 2.217,0 Z" /></g><g
           transform="translate(451.0732,-11.6934)"
           id="g246"><path
             id="path248"
             style="fill:#000000;fill-opacity:1;fill-rule:nonzero;stroke:none"
             d="m 0,0 h 2.283 v -4.94 l 2.081,2.322 H 7.009 L 4.458,-5.25 7.333,-9.587 H 4.578 L 2.872,-6.78 2.283,-7.358 V -9.587 H 0 Z" /></g><path
           id="path250"
           style="fill:#000000;fill-opacity:1;fill-rule:nonzero;stroke:none"
           d="m 463.342,-11.693 h 2.281 v -9.587 h -2.281 z" /><path
           id="path252"
           style="fill:#000000;fill-opacity:1;fill-rule:nonzero;stroke:none"
           d="m 467.316,-14.312 h 2.281 v -6.969 h -2.281 z m 2.282,0.874 h -2.281 v 1.745 h 2.281 z" /><g
           transform="translate(475.7471,-16.8623)"
           id="g254"><path
             id="path256"
             style="fill:#000000;fill-opacity:1;fill-rule:nonzero;stroke:none"
             d="m 0,0 c -0.013,0.591 -0.538,1.007 -1.114,1.007 -1.277,0 -1.477,-1.088 -1.477,-2.055 0,-0.899 0.388,-1.825 1.355,-1.825 0.792,0 1.196,0.456 1.303,1.194 h 2.217 c -0.203,-1.866 -1.652,-2.94 -3.508,-2.94 -2.093,0 -3.651,1.436 -3.651,3.571 0,2.216 1.411,3.801 3.651,3.801 C 0.511,2.753 2.054,1.84 2.215,0 Z" /></g><g
           transform="translate(483.9492,-17.0771)"
           id="g258"><path
             id="path260"
             style="fill:#000000;fill-opacity:1;fill-rule:nonzero;stroke:none"
             d="M 0,0 C -0.041,0.779 -0.592,1.423 -1.357,1.423 -2.163,1.423 -2.699,0.846 -2.835,0 Z m -2.835,-1.275 c 0.04,-0.954 0.591,-1.585 1.558,-1.585 0.551,0 1.088,0.255 1.303,0.765 H 2.16 c -0.414,-1.612 -1.906,-2.309 -3.464,-2.309 -2.268,0 -3.813,1.369 -3.813,3.706 0,2.135 1.706,3.666 3.76,3.666 2.498,0 3.746,-1.881 3.638,-4.243 z" /></g><g
           transform="translate(487.3691,-14.3115)"
           id="g262"><path
             id="path264"
             style="fill:#000000;fill-opacity:1;fill-rule:nonzero;stroke:none"
             d="m 0,0 h 2.217 v -0.953 h 0.027 c 0.414,0.712 1.356,1.155 2.188,1.155 2.324,0 2.511,-1.692 2.511,-2.7 V -6.969 H 4.66 v 3.37 c 0,0.953 0.108,1.92 -1.142,1.92 -0.86,0 -1.235,-0.724 -1.235,-1.49 v -3.8 H 0 Z" /></g><g
           transform="translate(497.5977,-18.9844)"
           id="g266"><path
             id="path268"
             style="fill:#000000;fill-opacity:1;fill-rule:nonzero;stroke:none"
             d="M 0,0 C 0,-0.349 0.148,-0.604 0.377,-0.778 0.592,-0.94 0.9,-1.021 1.223,-1.021 c 0.443,0 1.074,0.188 1.074,0.74 0,0.537 -0.711,0.643 -1.113,0.737 -1.438,0.363 -3.237,0.403 -3.237,2.284 0,1.679 1.813,2.135 3.182,2.135 1.529,0 3.129,-0.443 3.209,-2.257 H 2.23 C 2.23,2.914 2.123,3.103 1.934,3.223 1.746,3.344 1.492,3.397 1.211,3.397 0.834,3.397 0.229,3.357 0.229,2.874 0.229,2.216 1.76,2.095 2.807,1.867 4.217,1.585 4.58,0.564 4.58,-0.014 c 0,-1.866 -1.773,-2.483 -3.344,-2.483 -1.65,0 -3.343,0.551 -3.41,2.497 z" /></g><g
           transform="translate(508.0703,-17.0771)"
           id="g270"><path
             id="path272"
             style="fill:#000000;fill-opacity:1;fill-rule:nonzero;stroke:none"
             d="M 0,0 C -0.041,0.779 -0.59,1.423 -1.355,1.423 -2.162,1.423 -2.699,0.846 -2.834,0 Z m -2.834,-1.275 c 0.041,-0.954 0.592,-1.585 1.559,-1.585 0.548,0 1.087,0.255 1.302,0.765 h 2.135 c -0.416,-1.612 -1.908,-2.309 -3.465,-2.309 -2.269,0 -3.814,1.369 -3.814,3.706 0,2.135 1.705,3.666 3.762,3.666 2.498,0 3.746,-1.881 3.638,-4.243 z" /></g><g
           transform="translate(516.2168,-15.7881)"
           id="g274"><path
             id="path276"
             style="fill:#000000;fill-opacity:1;fill-rule:nonzero;stroke:none"
             d="M 0,0 H -1.102 V 1.477 H 0 c 0,2.001 0.697,2.618 2.645,2.618 0.363,0 0.738,-0.027 1.103,-0.04 V 2.443 C 3.531,2.471 3.33,2.484 3.129,2.484 2.604,2.484 2.283,2.417 2.283,1.786 V 1.477 H 3.652 V 0 H 2.283 V -5.492 H 0 Z" /></g><g
           transform="translate(524.0176,-19.7354)"
           id="g278"><path
             id="path280"
             style="fill:#000000;fill-opacity:1;fill-rule:nonzero;stroke:none"
             d="M 0,0 C 1.061,0 1.396,1.047 1.396,1.933 1.396,2.819 1.061,3.88 0,3.88 -1.063,3.88 -1.383,2.819 -1.383,1.933 -1.383,1.047 -1.063,0 0,0 m 0,5.626 c 2.162,0 3.68,-1.599 3.68,-3.693 0,-2.095 -1.518,-3.679 -3.68,-3.679 -2.162,0 -3.666,1.584 -3.666,3.679 0,2.094 1.504,3.693 3.666,3.693" /></g><g
           transform="translate(528.9688,-14.3115)"
           id="g282"><path
             id="path284"
             style="fill:#000000;fill-opacity:1;fill-rule:nonzero;stroke:none"
             d="m 0,0 h 2.215 v -1.222 h 0.027 c 0.338,0.886 1.115,1.357 2.096,1.357 0.174,0 0.361,-0.014 0.537,-0.054 V -2 c -0.295,0.08 -0.564,0.134 -0.873,0.134 -1.129,0 -1.719,-0.78 -1.719,-1.652 v -3.451 l -2.283,0 z" /></g><g
           transform="translate(541.0371,-17.7227)"
           id="g286"><path
             id="path288"
             style="fill:#000000;fill-opacity:1;fill-rule:nonzero;stroke:none"
             d="m 0,0 c 0,-1.222 0.35,-2.013 1.383,-2.013 1.019,0 1.371,1.06 1.371,2.013 0,0.887 -0.352,1.867 -1.358,1.867 C 0.779,1.867 0,1.438 0,0 m -2.203,3.411 h 2.178 V 2.605 H 0 c 0.443,0.659 1.115,1.008 1.92,1.008 2.187,0 3.117,-1.881 3.117,-3.841 0,-1.812 -0.969,-3.531 -2.943,-3.531 -0.86,0 -1.518,0.321 -1.987,0.953 H 0.082 v -3.088 h -2.285 z" /></g><g
           transform="translate(552.0723,-17.0771)"
           id="g290"><path
             id="path292"
             style="fill:#000000;fill-opacity:1;fill-rule:nonzero;stroke:none"
             d="M 0,0 C -0.041,0.779 -0.59,1.423 -1.355,1.423 -2.16,1.423 -2.699,0.846 -2.832,0 Z m -2.832,-1.275 c 0.039,-0.954 0.59,-1.585 1.557,-1.585 0.55,0 1.087,0.255 1.302,0.765 h 2.135 c -0.416,-1.612 -1.908,-2.309 -3.463,-2.309 -2.271,0 -3.814,1.369 -3.814,3.706 0,2.135 1.705,3.666 3.76,3.666 2.498,0 3.746,-1.881 3.638,-4.243 z" /></g><g
           transform="translate(555.5742,-14.3115)"
           id="g294"><path
             id="path296"
             style="fill:#000000;fill-opacity:1;fill-rule:nonzero;stroke:none"
             d="m 0,0 h 2.215 v -1.222 h 0.027 c 0.338,0.886 1.115,1.357 2.096,1.357 0.174,0 0.361,-0.014 0.537,-0.054 V -2 c -0.295,0.08 -0.564,0.134 -0.873,0.134 -1.129,0 -1.719,-0.78 -1.719,-1.652 v -3.451 l -2.283,0 z" /></g><g
           transform="translate(561.2129,-14.3115)"
           id="g298"><path
             id="path300"
             style="fill:#000000;fill-opacity:1;fill-rule:nonzero;stroke:none"
             d="m 0,0 h 2.215 v -0.953 h 0.027 c 0.416,0.699 1.154,1.155 2,1.155 0.873,0 1.653,-0.282 2.028,-1.128 0.55,0.738 1.236,1.128 2.175,1.128 2.217,0 2.459,-1.679 2.459,-3.008 V -6.969 H 8.619 v 4.096 c 0,0.752 -0.361,1.194 -0.953,1.194 -0.978,0 -1.072,-0.751 -1.072,-1.879 V -6.969 H 4.311 v 3.961 c 0,0.82 -0.243,1.329 -0.862,1.329 -0.818,0 -1.166,-0.469 -1.166,-1.892 v -3.398 l -2.283,0 z" /></g><path
           id="path302"
           style="fill:#000000;fill-opacity:1;fill-rule:nonzero;stroke:none"
           d="m 573.723,-14.312 h 2.283 v -6.969 h -2.283 z m 2.283,0.874 h -2.283 v 1.745 h 2.283 z" /><g
           transform="translate(581.8184,-15.7881)"
           id="g304"><path
             id="path306"
             style="fill:#000000;fill-opacity:1;fill-rule:nonzero;stroke:none"
             d="m 0,0 h -1.41 v -3.17 c 0,-0.55 0.324,-0.671 0.818,-0.671 0.19,0 0.391,0.028 0.592,0.028 v -1.679 c -0.414,-0.014 -0.832,-0.068 -1.248,-0.068 -1.947,0 -2.443,0.564 -2.443,2.458 V 0 h -1.157 v 1.477 h 1.157 V 3.585 H -1.41 V 1.477 H 0 Z" /></g><g
           transform="translate(587.041,-15.7881)"
           id="g308"><path
             id="path310"
             style="fill:#000000;fill-opacity:1;fill-rule:nonzero;stroke:none"
             d="m 0,0 h -1.412 v -3.17 c 0,-0.55 0.324,-0.671 0.82,-0.671 0.19,0 0.391,0.028 0.592,0.028 v -1.679 c -0.416,-0.014 -0.834,-0.068 -1.248,-0.068 -1.949,0 -2.445,0.564 -2.445,2.458 V 0 H -4.85 v 1.477 h 1.157 v 2.108 h 2.281 V 1.477 l 1.412,0 z" /></g><g
           transform="translate(592.8398,-17.0771)"
           id="g312"><path
             id="path314"
             style="fill:#000000;fill-opacity:1;fill-rule:nonzero;stroke:none"
             d="M 0,0 C -0.041,0.779 -0.592,1.423 -1.357,1.423 -2.162,1.423 -2.699,0.846 -2.834,0 Z m -2.834,-1.275 c 0.039,-0.954 0.592,-1.585 1.557,-1.585 0.552,0 1.088,0.255 1.304,0.765 H 2.16 c -0.414,-1.612 -1.906,-2.309 -3.463,-2.309 -2.269,0 -3.812,1.369 -3.812,3.706 0,2.135 1.705,3.666 3.758,3.666 2.498,0 3.746,-1.881 3.638,-4.243 z" /></g><g
           transform="translate(598.207,-17.7227)"
           id="g316"><path
             id="path318"
             style="fill:#000000;fill-opacity:1;fill-rule:nonzero;stroke:none"
             d="m 0,0 c 0,-0.953 0.35,-2.013 1.396,-2.013 1.116,0 1.358,1.06 1.358,1.947 0,1.006 -0.363,1.933 -1.358,1.933 C 0.35,1.867 0,0.887 0,0 M 4.955,-3.558 H 2.781 v 0.806 H 2.754 C 2.311,-3.41 1.639,-3.759 0.832,-3.759 c -2.187,0 -3.113,1.88 -3.113,3.84 0,1.814 0.967,3.532 2.939,3.532 0.86,0 1.518,-0.322 1.987,-0.954 h 0.029 v 3.37 h 2.281 z" /></g><g
           transform="translate(615.875,-21.2803)"
           id="g320"><path
             id="path322"
             style="fill:#000000;fill-opacity:1;fill-rule:nonzero;stroke:none"
             d="m 0,0 h -2.215 v 0.953 h -0.027 c -0.43,-0.711 -1.315,-1.154 -2.121,-1.154 -2.002,0 -2.578,1.154 -2.578,2.98 v 4.19 H -4.66 V 2.928 c 0,-0.927 0.404,-1.249 1.129,-1.249 0.496,0 1.248,0.322 1.248,1.557 v 3.733 l 2.283,0 z" /></g><g
           transform="translate(619.1758,-18.9844)"
           id="g324"><path
             id="path326"
             style="fill:#000000;fill-opacity:1;fill-rule:nonzero;stroke:none"
             d="m 0,0 c 0,-0.349 0.146,-0.604 0.375,-0.778 0.215,-0.162 0.523,-0.243 0.846,-0.243 0.443,0 1.074,0.188 1.074,0.74 0,0.537 -0.711,0.643 -1.113,0.737 -1.438,0.363 -3.239,0.403 -3.239,2.284 0,1.679 1.813,2.135 3.184,2.135 1.531,0 3.129,-0.443 3.211,-2.257 H 2.229 c 0,0.296 -0.108,0.485 -0.295,0.605 -0.188,0.121 -0.446,0.174 -0.727,0.174 -0.375,0 -0.978,-0.04 -0.978,-0.523 0,-0.658 1.531,-0.779 2.578,-1.007 1.41,-0.282 1.771,-1.303 1.771,-1.881 0,-1.866 -1.771,-2.483 -3.344,-2.483 -1.652,0 -3.343,0.551 -3.41,2.497 z" /></g><g
           transform="translate(629.6465,-17.0771)"
           id="g328"><path
             id="path330"
             style="fill:#000000;fill-opacity:1;fill-rule:nonzero;stroke:none"
             d="M 0,0 C -0.039,0.779 -0.59,1.423 -1.355,1.423 -2.162,1.423 -2.697,0.846 -2.834,0 Z m -2.834,-1.275 c 0.041,-0.954 0.592,-1.585 1.559,-1.585 0.55,0 1.086,0.255 1.302,0.765 h 2.135 c -0.416,-1.612 -1.906,-2.309 -3.465,-2.309 -2.267,0 -3.812,1.369 -3.812,3.706 0,2.135 1.705,3.666 3.76,3.666 2.498,0 3.746,-1.881 3.638,-4.243 z" /></g><path
           id="path332"
           style="fill:#000000;fill-opacity:1;fill-rule:nonzero;stroke:none"
           d="m 633.176,-18.782 h 2.498 v -2.498 h -2.498 z" /></g></g><g
       id="g334"><g
         clip-path="url(#clipPath340)"
         id="g336"><g
           transform="translate(364.7119,151.8203)"
           id="g342"><path
             id="path344"
             style="fill:#88288a;fill-opacity:1;fill-rule:nonzero;stroke:none"
             d="M 0,0 C 11.935,21.87 23.302,41.14 26.524,91.24 H 65 C 68.225,41.14 79.313,22.523 91.411,0 Z" /></g><g
           transform="translate(409.8213,346.6436)"
           id="g346"><path
             id="path348"
             style="fill:#88288a;fill-opacity:1;fill-rule:nonzero;stroke:none"
             d="m 0,0 c -10.88,0 -19.693,8.817 -19.693,19.695 0,10.871 8.813,19.688 19.693,19.688 10.875,0 19.692,-8.817 19.692,-19.688 C 19.692,8.817 10.875,0 0,0" /></g><g
           transform="translate(351.6943,73.7725)"
           id="g350"><path
             id="path352"
             style="fill:#88288a;fill-opacity:1;fill-rule:nonzero;stroke:none"
             d="m 0,0 c 0,0 0.276,4.729 1.162,6.984 0.88,2.261 3.931,4.773 3.931,4.773 h 109.591 c 0,0 3.034,-2.216 4.056,-4.607 C 119.766,4.761 119.781,0 119.781,0 Z" /></g><g
           transform="translate(357.4814,87.168)"
           id="g354"><path
             id="path356"
             style="fill:#88288a;fill-opacity:1;fill-rule:nonzero;stroke:none"
             d="m 0,0 c -4.831,6.185 -7.63,13.653 -7.038,22.988 0.605,9.605 5.914,20.124 11.406,28.207 h 98.365 C 107.495,43.848 114.555,34.309 115.246,24.83 115.935,15.347 113.037,6.185 108.207,0 Z" /></g><g
           transform="translate(357.9424,145.3535)"
           id="g358"><path
             id="path360"
             style="fill:#88288a;fill-opacity:1;fill-rule:nonzero;stroke:none"
             d="m 0,0 c 0.921,3.68 4.296,4.485 5.492,4.485 h 45.115 8.051 41.19 c 1.197,0 4.571,-0.805 5.491,-4.485 0.799,-2.942 -2.27,-5.304 -3.53,-5.354 -0.749,-0.008 -33.445,-0.003 -47.175,0 C 40.898,-5.357 4.28,-5.362 3.531,-5.354 2.271,-5.304 -0.795,-2.942 0,0" /></g><g
           transform="translate(361.1309,339.6787)"
           id="g362"><path
             id="path364"
             style="fill:#88288a;fill-opacity:1;fill-rule:nonzero;stroke:none"
             d="M 0,0 C 3.436,4.907 8.587,4.785 10.795,4.171 13.004,3.557 17.295,0 22.325,0 c 4.367,0 8.586,1.839 12.095,4.125 0.493,0.4 0.968,0.775 1.425,1.113 L 35.944,5.166 36.06,5.25 c 0.249,-0.183 0.494,-0.419 0.735,-0.685 3.609,-2.537 7.955,-5.056 12.572,-5.056 5.064,0 9.698,2.964 13.497,5.741 C 66.66,2.473 71.534,0 76.598,0 81.626,0 85.919,3.557 88.127,4.171 90.336,4.785 95.484,4.907 98.919,0 103.68,-6.797 98.804,-12.454 95.239,-14.966 84.121,-22.786 69.966,-48.02 71.765,-76.221 h 11.363 c 0.835,0 7.3,-2.549 7.944,-9.635 0.553,-5.671 -5.694,-9.218 -6.578,-9.317 -0.517,-0.011 -23.36,-0.006 -32.952,0 -9.595,-0.006 -35.175,-0.011 -35.696,0 -0.881,0.099 -6.773,3.155 -6.218,8.825 0.646,7.089 6.75,10.127 7.586,10.127 h 9.978 l -0.03,0.212 C 28.88,-47.894 14.772,-22.763 3.682,-14.966 0.119,-12.454 -4.759,-6.797 0,0" /></g><g
           transform="translate(202.9146,154.5547)"
           id="g366"><path
             id="path368"
             style="fill:#9f1f70;fill-opacity:1;fill-rule:nonzero;stroke:none"
             d="m 0,0 h 80.605 l 4.566,36.438 c -18.855,15.141 -38.903,43.589 -38.188,70.473 0.126,4.721 4.169,4.175 4.297,0.784 0.239,-6.527 4.005,-17.895 17.899,-14.097 7.641,2.093 15.329,2.702 21.002,0.522 5.529,-2.12 6.606,-4.698 11.637,-7.25 0,0 5.141,4.807 8.83,12.005 3.411,6.646 5.55,11.363 -3.689,17.603 -8.115,5.483 -19.205,18.572 -22.966,27.856 -2.863,7.084 -7.241,11.114 -10.593,12.868 1.191,3.916 4.891,7.506 -2.972,14.268 -2.543,-1.853 -5.16,-4.027 -7.573,-6.829 -13.051,4.17 -34.001,1.438 -48.68,-9.516 C -26.82,124.527 -17.572,23.721 0,0" /></g><g
           transform="translate(295.1787,73.7725)"
           id="g370"><path
             id="path372"
             style="fill:#9f1f70;fill-opacity:1;fill-rule:nonzero;stroke:none"
             d="m 0,0 c 0,0 -0.271,4.898 -1.119,7.236 -0.858,2.338 -3.807,4.945 -3.807,4.945 h -96.09 c 0,0 -2.933,-2.299 -3.924,-4.774 C -105.928,4.93 -105.942,0 -105.942,0 Z" /></g><g
           transform="translate(289.5801,87.8047)"
           id="g374"><path
             id="path376"
             style="fill:#9f1f70;fill-opacity:1;fill-rule:nonzero;stroke:none"
             d="M 0,0 C 4.673,6.407 7.375,14.141 6.811,23.811 6.218,33.764 1.088,44.647 -4.219,53.024 h -85.24 c -4.602,-7.608 -11.426,-17.49 -12.09,-27.307 -0.674,-9.821 2.132,-19.31 6.797,-25.717 z" /></g><g
           transform="translate(289.1367,147.9131)"
           id="g378"><path
             id="path380"
             style="fill:#9f1f70;fill-opacity:1;fill-rule:nonzero;stroke:none"
             d="m 0,0 c -0.886,3.808 -4.151,4.644 -5.309,4.644 h -39.816 -7.785 -33.764 c -1.156,0 -4.415,-0.836 -5.306,-4.644 -0.771,-3.052 2.192,-5.493 3.41,-5.55 0.726,-0.007 26.278,-0.005 39.554,-0.005 13.273,0 44.88,-0.002 45.6,0.005 C -2.195,-5.493 0.771,-3.052 0,0" /></g><g
           transform="translate(125.3467,271.9678)"
           id="g382"><path
             id="path384"
             style="fill:#b11c50;fill-opacity:1;fill-rule:nonzero;stroke:none"
             d="m 0,0 c 0,0 9.467,8.411 14.774,19.252 5.305,10.847 6.619,26.261 6.619,26.261 H -7.522 l 2.06,-21.346 h -20.269 l 2.058,21.346 h -25.895 l 2.054,-21.346 h -20.267 l 2.058,21.346 h -28.914 c 0,0 0.609,-12.904 6.623,-26.261 C -82,5.897 -73.241,0 -73.241,0 Z" /></g><g
           transform="translate(46.1299,168.7148)"
           id="g386"><path
             id="path388"
             style="fill:#b11c50;fill-opacity:1;fill-rule:nonzero;stroke:none"
             d="M 0,0 8.181,85.693 H 77.35 L 85.535,0 Z" /></g><g
           transform="translate(152.8027,73.7725)"
           id="g390"><path
             id="path392"
             style="fill:#b11c50;fill-opacity:1;fill-rule:nonzero;stroke:none"
             d="m 0,0 c 0,0 -0.977,4.769 -1.896,7.521 -0.922,2.749 -4.942,6.816 -4.942,6.816 h -114.293 c 0,0 -3.694,-2.919 -4.768,-5.834 C -126.964,5.585 -128.007,0 -128.007,0 Z" /></g><g
           transform="translate(145.25,90.1055)"
           id="g394"><path
             id="path396"
             style="fill:#b11c50;fill-opacity:1;fill-rule:nonzero;stroke:none"
             d="M 0,0 C 5.031,7.541 9.351,17.417 8.739,28.801 8.108,40.516 -0.95,52.563 -6.679,62.421 h -96.938 c -4.961,-8.962 -17.097,-22.066 -17.814,-33.62 -0.721,-11.562 3.535,-21.26 8.574,-28.801 z" /></g><g
           transform="translate(143.0254,161.0615)"
           id="g398"><path
             id="path400"
             style="fill:#b11c50;fill-opacity:1;fill-rule:nonzero;stroke:none"
             d="m 0,0 c -0.918,4.487 -5.302,5.458 -6.505,5.458 h -45.176 -8.059 -41.237 c -1.205,0 -5.317,-1.103 -6.235,-5.589 -0.803,-3.588 3.002,-6.348 4.263,-6.408 0.744,-0.01 33.489,-0.005 47.239,0 13.748,-0.005 50.422,-0.01 51.169,0 C -3.274,-6.479 0.801,-3.588 0,0" /></g><g
           transform="translate(133.4316,263.665)"
           id="g402"><path
             id="path404"
             style="fill:#b11c50;fill-opacity:1;fill-rule:nonzero;stroke:none"
             d="m 0,0 c -0.917,5.103 -5.302,6.205 -6.502,6.205 h -34.904 -8.054 -33.02 c -1.203,0 -5.312,-1.253 -6.238,-6.357 -0.797,-4.081 5.592,-7.496 6.854,-7.563 0.745,-0.013 22.679,0.27 36.433,0.27 13.749,0 37.836,-0.007 38.582,0.002 C -5.58,-7.372 0.801,-4.086 0,0" /></g><g
           transform="translate(508.04,73.7725)"
           id="g406"><path
             id="path408"
             style="fill:#50297b;fill-opacity:1;fill-rule:nonzero;stroke:none"
             d="m 0,0 c 0,0 0.28,4.833 1.161,7.135 0.884,2.307 3.936,4.877 3.936,4.877 h 105.665 c 0,0 3.034,-2.267 4.057,-4.708 C 115.841,4.863 115.857,0 115.857,0 Z" /></g><g
           transform="translate(513.8281,87.4551)"
           id="g410"><path
             id="path412"
             style="fill:#50297b;fill-opacity:1;fill-rule:nonzero;stroke:none"
             d="m 0,0 c -4.829,6.319 -7.628,13.945 -7.037,23.485 0.606,9.808 5.916,20.554 11.407,28.812 h 94.439 c 4.76,-7.509 11.822,-17.254 12.51,-26.939 C 112.01,15.677 109.111,6.319 104.281,0 Z" /></g><g
           transform="translate(514.293,146.8926)"
           id="g414"><path
             id="path416"
             style="fill:#50297b;fill-opacity:1;fill-rule:nonzero;stroke:none"
             d="m 0,0 c 0.919,3.76 4.293,4.577 5.494,4.577 h 41.184 8.053 41.187 c 1.2,0 4.572,-0.817 5.494,-4.577 0.796,-3.006 -2.268,-5.42 -3.53,-5.472 C 97.137,-5.479 64.438,-5.474 50.704,-5.474 36.977,-5.474 4.276,-5.479 3.53,-5.472 2.268,-5.42 -0.798,-3.006 0,0" /></g><g
           transform="translate(520.7734,152.9648)"
           id="g418"><path
             id="path420"
             style="fill:#50297b;fill-opacity:1;fill-rule:nonzero;stroke:none"
             d="M 0,0 C 11.782,26.911 23.014,41.723 26.196,92.531 H 64.195 C 67.377,41.723 76.896,26.911 88.68,0 Z" /></g><g
           transform="translate(549.2314,399.1387)"
           id="g422"><path
             id="path424"
             style="fill:#50297b;fill-opacity:1;fill-rule:evenodd;stroke:none"
             d="m 0,0 c 4.466,-4.569 9.747,-6.562 11.795,-4.451 2.047,2.096 0.104,7.488 -4.351,12.039 -0.611,0.64 -1.236,1.194 -1.875,1.721 3.03,1.795 6.532,2.815 10.272,2.815 3.735,0 7.24,-1.027 10.263,-2.815 C 25.373,8.741 24.663,8.084 23.973,7.378 19.518,2.811 17.563,-2.581 19.62,-4.676 c 2.053,-2.094 7.33,-0.093 11.786,4.446 0.732,0.753 1.392,1.506 1.978,2.279 1.878,-3.168 2.971,-6.907 2.971,-10.898 0,-3.806 -0.998,-7.418 -2.747,-10.49 -0.566,0.694 -1.166,1.401 -1.841,2.079 -4.454,4.554 -9.727,6.547 -11.793,4.447 -2.045,-2.106 -0.101,-7.504 4.363,-12.054 0.682,-0.692 1.41,-1.343 2.113,-1.914 -3.096,-1.927 -6.734,-3.029 -10.609,-3.029 -3.83,0.007 -7.418,1.072 -10.49,2.936 0.765,0.607 1.517,1.267 2.246,2.023 4.457,4.553 6.406,9.942 4.354,12.038 -2.055,2.112 -7.331,0.107 -11.79,-4.447 -0.735,-0.738 -1.398,-1.505 -1.983,-2.288 -1.818,3.136 -2.871,6.798 -2.871,10.712 0,3.953 1.074,7.657 2.95,10.814 C -1.229,1.322 -0.638,0.637 0,0" /></g><g
           transform="translate(517.1992,339.7534)"
           id="g426"><path
             id="path428"
             style="fill:#50297b;fill-opacity:1;fill-rule:nonzero;stroke:none"
             d="m 0,0 c 0,9.784 7.765,17.715 17.34,17.715 2.766,0 7.066,-0.006 9.841,-0.006 v 4.35 c 0,2.8 2.222,5.075 4.965,5.075 h 33.237 c 2.744,0 4.965,-2.275 4.965,-5.075 v -4.35 c 2.777,0 7.078,0.006 9.843,0.006 9.576,0 17.341,-7.931 17.341,-17.715 0,-4.286 -1.898,-8.64 -3.978,-12.001 -2.888,-4.674 -21.54,-32.525 -21.54,-32.525 l 1.709,-30.21 h 5.228 c 0.77,0 6.702,-2.389 7.293,-9.032 0.511,-5.321 -5.227,-8.641 -6.038,-8.739 -0.476,-0.009 -21.439,-0.002 -30.243,-0.002 -8.805,0 -32.288,-0.007 -32.767,0.002 -0.811,0.098 -6.217,2.963 -5.703,8.277 0.592,6.646 6.195,9.494 6.96,9.494 h 5.355 l 1.474,30.961 c 0,0 -18.416,27.1 -21.308,31.774 C 1.896,-8.64 0,-4.286 0,0" /></g></g></g></g></svg>